<svg width="511" height="44" viewBox="0 0 511 44" fill="none" xmlns="http://www.w3.org/2000/svg">
<path d="M310.631 25.7955V23.75L327.097 15.3636V18.6364L314.466 24.7216L314.568 24.517V25.0284L314.466 24.8239L327.097 30.9091V34.1818L310.631 25.7955ZM334.566 23.9545C334.566 20.733 334.983 17.7713 335.819 15.0696C336.662 12.3594 337.864 9.86648 339.424 7.59091H342.083C341.469 8.43466 340.894 9.47443 340.357 10.7102C339.828 11.9375 339.364 13.2884 338.963 14.7628C338.563 16.2287 338.248 17.7457 338.017 19.3139C337.796 20.8821 337.685 22.429 337.685 23.9545C337.685 25.983 337.881 28.0412 338.273 30.1293C338.665 32.2173 339.194 34.1562 339.858 35.946C340.523 37.7358 341.265 39.1932 342.083 40.3182H339.424C337.864 38.0426 336.662 35.554 335.819 32.8523C334.983 30.142 334.566 27.1761 334.566 23.9545ZM350.469 26.252C347.481 26.252 344.997 28.7 344.997 31.724C344.997 34.748 347.481 37.196 350.469 37.196C353.529 37.196 355.977 34.748 355.977 31.724C355.977 28.7 353.529 26.252 350.469 26.252ZM350.469 35.36C348.489 35.36 346.833 33.74 346.833 31.724C346.833 29.708 348.489 28.088 350.469 28.088C352.521 28.088 354.141 29.708 354.141 31.724C354.141 33.74 352.521 35.36 350.469 35.36ZM377.865 36.224C385.785 36.224 392.121 29.888 392.121 21.968C392.121 14.048 385.785 7.712 377.865 7.712C369.945 7.712 363.609 14.048 363.609 21.968C363.609 29.888 369.945 36.224 377.865 36.224ZM365.121 21.968C365.121 14.876 370.773 9.224 377.865 9.224V21.968H365.121ZM408.566 43.4886C406.248 43.4886 404.262 43.267 402.609 42.8239C400.956 42.3892 399.541 41.7884 398.365 41.0213C397.189 40.2628 396.157 39.3977 395.271 38.4261L397.214 37.0455C398.39 37.8636 399.873 38.554 401.663 39.1165C403.453 39.679 405.754 39.9602 408.566 39.9602C410.441 39.9602 412.108 39.8239 413.565 39.5511C415.031 39.2784 416.314 38.9205 417.413 38.4773C418.521 38.0341 419.475 37.5568 420.277 37.0455L421.913 38.4261C421.197 39.3295 420.238 40.1648 419.037 40.9318C417.843 41.6989 416.377 42.3168 414.639 42.7855C412.909 43.2543 410.885 43.4886 408.566 43.4886ZM439.283 36.224C447.203 36.224 453.539 29.888 453.539 21.968C453.539 14.048 447.203 7.712 439.283 7.712C431.363 7.712 425.027 14.048 425.027 21.968C425.027 29.888 431.363 36.224 439.283 36.224ZM426.539 21.968C426.539 14.876 432.191 9.224 439.283 9.224V21.968H426.539ZM462.055 26.252C459.067 26.252 456.583 28.7 456.583 31.724C456.583 34.748 459.067 37.196 462.055 37.196C465.115 37.196 467.563 34.748 467.563 31.724C467.563 28.7 465.115 26.252 462.055 26.252ZM462.055 35.36C460.075 35.36 458.419 33.74 458.419 31.724C458.419 29.708 460.075 28.088 462.055 28.088C464.107 28.088 465.727 29.708 465.727 31.724C465.727 33.74 464.107 35.36 462.055 35.36ZM476.99 25.7955V23.75L493.456 15.3636V18.6364L480.825 24.7216L480.928 24.517V25.0284L480.825 24.8239L493.456 30.9091V34.1818L476.99 25.7955ZM506.294 23.9545C506.294 27.1761 505.873 30.142 505.029 32.8523C504.194 35.554 502.996 38.0426 501.436 40.3182H498.777C499.391 39.4744 499.962 38.4347 500.49 37.1989C501.027 35.9716 501.496 34.625 501.897 33.1591C502.297 31.6847 502.608 30.1634 502.83 28.5952C503.06 27.0185 503.175 25.4716 503.175 23.9545C503.175 21.9261 502.979 19.8679 502.587 17.7798C502.195 15.6918 501.667 13.7528 501.002 11.9631C500.337 10.1733 499.596 8.71591 498.777 7.59091H501.436C502.996 9.86648 504.194 12.3594 505.029 15.0696C505.873 17.7713 506.294 20.733 506.294 23.9545Z" fill="black"/>
<path d="M266.101 35.8894H230.566C229.623 35.8894 228.858 35.1527 228.858 34.2449C228.858 33.3371 229.623 32.6004 230.566 32.6004H266.101C267.044 32.6004 267.81 33.3371 267.81 34.2449C267.81 35.1527 267.044 35.8894 266.101 35.8894Z" fill="black"/>
<path d="M228.352 44C226.944 44 225.618 43.4738 224.627 42.52C223.629 41.5596 223.082 40.29 223.075 38.9284L223.034 5.14397C223.034 3.78891 223.581 2.51278 224.572 1.5524C225.57 0.592017 226.889 0.0657796 228.304 0.0592017L282.669 0H282.676C284.084 0 285.403 0.526237 286.401 1.48004C287.399 2.44042 287.945 3.70997 287.952 5.07161L287.993 38.856C287.993 40.2111 287.446 41.4872 286.455 42.4476C285.457 43.408 284.138 43.9342 282.723 43.9408L228.359 44H228.352ZM282.676 3.28898L228.311 3.34818C227.812 3.34818 227.347 3.53237 226.998 3.87442C226.65 4.21647 226.458 4.66378 226.458 5.13739L226.499 38.9218C226.499 39.402 226.691 39.8493 227.046 40.1848C227.395 40.5203 227.866 40.7044 228.359 40.7044L282.723 40.6452C283.222 40.6452 283.687 40.4611 284.036 40.119C284.384 39.7769 284.576 39.3296 284.576 38.856L284.535 5.07161C284.535 4.08492 283.701 3.28898 282.676 3.28898V3.28898Z" fill="black"/>
<path d="M286.25 11.7483L224.75 11.8206L224.88 6.55168L286.121 6.4859L286.25 11.7483Z" fill="black"/>
<path d="M223 13.4651L223.205 4.90716L287.788 4.84138L288 13.3927L223 13.4651ZM226.547 8.19615L226.499 10.1761L284.501 10.1103L284.453 8.13694L226.547 8.19615V8.19615Z" fill="black"/>
<path d="M230.238 25.2528C229.787 25.2528 229.35 25.0818 229.028 24.7726C228.707 24.4634 228.529 24.049 228.529 23.6083V17.0764C228.523 16.1686 229.288 15.4319 230.231 15.4319L270.721 15.3858C271.665 15.3858 272.43 16.1226 272.43 17.0303V23.5623C272.437 23.9964 272.259 24.4174 271.938 24.7266C271.617 25.0357 271.186 25.2068 270.728 25.2068L230.238 25.2528ZM231.94 18.7209V21.9638L269.013 21.9243V18.6814L231.94 18.7209V18.7209Z" fill="black"/>
<path d="M255.719 31.3637H230.559C229.616 31.3637 228.851 30.627 228.851 29.7192C228.851 28.8115 229.616 28.0747 230.559 28.0747H255.719C256.662 28.0747 257.427 28.8115 257.427 29.7192C257.427 30.627 256.662 31.3637 255.719 31.3637Z" fill="black"/>
<path d="M270.831 31.3637H261.378C260.435 31.3637 259.669 30.627 259.669 29.7192C259.669 28.8115 260.435 28.0747 261.378 28.0747H270.831C271.774 28.0747 272.539 28.8115 272.539 29.7192C272.539 30.627 271.774 31.3637 270.831 31.3637Z" fill="black"/>
<path d="M200.369 25.7955V23.75L183.903 15.3636V18.6364L196.534 24.7216L196.432 24.517V25.0284L196.534 24.8239L183.903 30.9091V34.1818L200.369 25.7955ZM176.434 23.9545C176.434 20.733 176.017 17.7713 175.181 15.0696C174.338 12.3594 173.136 9.86648 171.576 7.59091H168.917C169.531 8.43466 170.106 9.47443 170.643 10.7102C171.172 11.9375 171.636 13.2884 172.037 14.7628C172.437 16.2287 172.752 17.7457 172.983 19.3139C173.204 20.8821 173.315 22.429 173.315 23.9545C173.315 25.983 173.119 28.0412 172.727 30.1293C172.335 32.2173 171.806 34.1562 171.142 35.946C170.477 37.7358 169.735 39.1932 168.917 40.3182H171.576C173.136 38.0426 174.338 35.554 175.181 32.8523C176.017 30.142 176.434 27.1761 176.434 23.9545ZM160.531 26.252C163.519 26.252 166.003 28.7 166.003 31.724C166.003 34.748 163.519 37.196 160.531 37.196C157.471 37.196 155.023 34.748 155.023 31.724C155.023 28.7 157.471 26.252 160.531 26.252ZM160.531 35.36C162.511 35.36 164.167 33.74 164.167 31.724C164.167 29.708 162.511 28.088 160.531 28.088C158.479 28.088 156.859 29.708 156.859 31.724C156.859 33.74 158.479 35.36 160.531 35.36ZM133.135 36.224C125.215 36.224 118.879 29.888 118.879 21.968C118.879 14.048 125.215 7.712 133.135 7.712C141.055 7.712 147.391 14.048 147.391 21.968C147.391 29.888 141.055 36.224 133.135 36.224ZM145.879 21.968C145.879 14.876 140.227 9.224 133.135 9.224V21.968H145.879ZM102.434 43.4886C104.752 43.4886 106.738 43.267 108.391 42.8239C110.044 42.3892 111.459 41.7884 112.635 41.0213C113.811 40.2628 114.843 39.3977 115.729 38.4261L113.786 37.0455C112.61 37.8636 111.127 38.554 109.337 39.1165C107.547 39.679 105.246 39.9602 102.434 39.9602C100.559 39.9602 98.8924 39.8239 97.435 39.5511C95.9691 39.2784 94.6864 38.9205 93.587 38.4773C92.479 38.0341 91.5245 37.5568 90.7234 37.0455L89.087 38.4261C89.8029 39.3295 90.7617 40.1648 91.9634 40.9318C93.1566 41.6989 94.6225 42.3168 96.3611 42.7855C98.0913 43.2543 100.115 43.4886 102.434 43.4886ZM71.7166 36.224C63.7966 36.224 57.4606 29.888 57.4606 21.968C57.4606 14.048 63.7966 7.712 71.7166 7.712C79.6366 7.712 85.9726 14.048 85.9726 21.968C85.9726 29.888 79.6366 36.224 71.7166 36.224ZM84.4606 21.968C84.4606 14.876 78.8086 9.224 71.7166 9.224V21.968H84.4606ZM48.9446 26.252C51.9326 26.252 54.4166 28.7 54.4166 31.724C54.4166 34.748 51.9326 37.196 48.9446 37.196C45.8846 37.196 43.4366 34.748 43.4366 31.724C43.4366 28.7 45.8846 26.252 48.9446 26.252ZM48.9446 35.36C50.9246 35.36 52.5806 33.74 52.5806 31.724C52.5806 29.708 50.9246 28.088 48.9446 28.088C46.8926 28.088 45.2726 29.708 45.2726 31.724C45.2726 33.74 46.8926 35.36 48.9446 35.36ZM34.0099 25.7955V23.75L17.544 15.3636V18.6364L30.1747 24.7216L30.0724 24.517V25.0284L30.1747 24.8239L17.544 30.9091V34.1818L34.0099 25.7955ZM4.70561 23.9545C4.70561 27.1761 5.12749 30.142 5.97124 32.8523C6.80646 35.554 8.00391 38.0426 9.56357 40.3182H12.2227C11.609 39.4744 11.038 38.4347 10.5096 37.1989C9.97266 35.9716 9.50391 34.625 9.10334 33.1591C8.70277 31.6847 8.39169 30.1634 8.1701 28.5952C7.93999 27.0185 7.82493 25.4716 7.82493 23.9545C7.82493 21.9261 8.02095 19.8679 8.413 17.7798C8.80504 15.6918 9.33345 13.7528 9.99822 11.9631C10.663 10.1733 11.4045 8.71591 12.2227 7.59091H9.56357C8.00391 9.86648 6.80646 12.3594 5.97124 15.0696C5.12749 17.7713 4.70561 20.733 4.70561 23.9545Z" fill="black"/>
</svg>
