<svg width="66" height="12" viewBox="0 0 66 12" fill="none" xmlns="http://www.w3.org/2000/svg">
<path d="M4 10.0589C5.848 10.0589 7.552 8.76286 7.552 6.55486C7.552 4.32286 5.848 3.03886 4 3.03886C2.14 3.03886 0.436 4.32286 0.436 6.55486C0.436 8.76286 2.14 10.0589 4 10.0589ZM4 8.61886C2.884 8.61886 2.26 7.80286 2.26 6.55486C2.26 5.30686 2.884 4.49086 4 4.49086C5.104 4.49086 5.728 5.30686 5.728 6.55486C5.728 7.80286 5.104 8.61886 4 8.61886ZM11.125 6.41628C11.125 5.35946 11.2656 4.38645 11.5469 3.49724C11.831 2.60804 12.2642 1.78417 12.8466 1.02565H14.581C14.3594 1.3069 14.1534 1.65065 13.9631 2.0569C13.7727 2.46031 13.6065 2.90349 13.4645 3.38645C13.3224 3.8694 13.2116 4.3694 13.1321 4.88645C13.0526 5.40065 13.0128 5.9106 13.0128 6.41628C13.0128 7.08957 13.081 7.76997 13.2173 8.45747C13.3565 9.14213 13.544 9.77849 13.7798 10.3666C14.0185 10.9546 14.2855 11.4362 14.581 11.8112H12.8466C12.2642 11.0526 11.831 10.2288 11.5469 9.33957C11.2656 8.45037 11.125 7.47594 11.125 6.41628ZM25.6862 5.34286L16.8062 0.698857L16.2422 1.77886L23.1182 5.35486V5.39086L16.2422 8.96686L16.8062 10.0469L25.6862 5.39086V5.34286ZM37.5662 1.77886L37.0022 0.698857L28.1222 5.34286V5.39086L37.0022 10.0469L37.5662 8.96686L30.6902 5.39086V5.35486L37.5662 1.77886ZM43.9022 11.4749C45.4262 10.9829 46.2782 9.84286 46.2782 8.36686C46.2782 7.23886 45.8102 6.56686 44.9702 6.56686C44.3342 6.56686 43.7942 6.96286 43.7942 7.64686C43.7942 8.34286 44.3462 8.73886 44.9462 8.73886C45.2102 8.73886 45.4622 8.64286 45.6542 8.46286L44.9942 7.39486L45.0782 8.65486C45.0902 9.45886 44.5502 10.1189 43.5062 10.5149L43.9022 11.4749ZM44.9102 3.73486C45.5342 3.73486 46.0502 3.25486 46.0502 2.60686C46.0502 1.94686 45.5342 1.46686 44.9102 1.46686C44.2742 1.46686 43.7582 1.94686 43.7582 2.60686C43.7582 3.25486 44.2742 3.73486 44.9102 3.73486ZM54.6942 5.55122C54.6942 6.61088 54.5522 7.58531 54.2681 8.47452C53.9869 9.36372 53.555 10.1876 52.9727 10.9461H51.2383C51.4599 10.6649 51.6658 10.3211 51.8562 9.91486C52.0465 9.50861 52.2127 9.06543 52.3548 8.58531C52.4968 8.10236 52.6076 7.60236 52.6871 7.08531C52.7667 6.56827 52.8065 6.0569 52.8065 5.55122C52.8065 4.87792 52.7369 4.19895 52.5977 3.51429C52.4613 2.82679 52.2738 2.19042 52.0352 1.6052C51.7994 1.01713 51.5337 0.535595 51.2383 0.160595H52.9727C53.555 0.919118 53.9869 1.74298 54.2681 2.63219C54.5522 3.52139 54.6942 4.4944 54.6942 5.55122ZM61.3089 10.0512C60.6896 10.0512 60.1072 9.93474 59.5618 9.70179C59.0192 9.46883 58.5405 9.14639 58.1257 8.73446C57.7138 8.31969 57.3899 7.84099 57.1541 7.29838C56.9212 6.75577 56.8061 6.17338 56.8089 5.55122C56.8118 4.92906 56.9297 4.34667 57.1626 3.80406C57.3984 3.26145 57.7223 2.78417 58.1342 2.37224C58.5462 1.95747 59.0234 1.63361 59.5661 1.40065C60.1087 1.1677 60.6896 1.05122 61.3089 1.05122C61.9311 1.05122 62.5135 1.1677 63.0561 1.40065C63.6016 1.63361 64.0788 1.95747 64.4879 2.37224C64.8999 2.78417 65.2223 3.26145 65.4553 3.80406C65.6882 4.34667 65.8061 4.92906 65.8089 5.55122C65.8118 6.17338 65.6967 6.75577 65.4638 7.29838C65.2308 7.84099 64.9084 8.31969 64.4964 8.73446C64.0845 9.14639 63.6058 9.46883 63.0604 9.70179C62.5149 9.93474 61.9311 10.0512 61.3089 10.0512ZM61.3089 8.63219C61.7379 8.63219 62.1385 8.55264 62.5107 8.39355C62.8857 8.23446 63.2138 8.01429 63.495 7.73304C63.7763 7.44895 63.9964 7.12224 64.1555 6.75293C64.3146 6.38077 64.3928 5.98162 64.3899 5.55548C64.3899 5.1265 64.3089 4.72594 64.147 4.35378C63.9879 3.97878 63.7678 3.65065 63.4865 3.3694C63.2053 3.08815 62.8786 2.86798 62.5064 2.70889C62.1342 2.5498 61.7351 2.47025 61.3089 2.47025C60.8857 2.47025 60.4879 2.5498 60.1158 2.70889C59.7464 2.86798 59.4197 3.08957 59.1357 3.37366C58.8544 3.65491 58.6328 3.98304 58.4709 4.35804C58.3089 4.7302 58.228 5.12935 58.228 5.55548C58.2251 5.97878 58.3033 6.3765 58.4624 6.74866C58.6243 7.11798 58.8459 7.44469 59.1271 7.72878C59.4112 8.01003 59.7393 8.23162 60.1115 8.39355C60.4837 8.55264 60.8828 8.63219 61.3089 8.63219Z" fill="black"/>
</svg>
