<svg width="65" height="12" viewBox="0 0 65 12" fill="none" xmlns="http://www.w3.org/2000/svg">
<path d="M4 10.0589C5.812 10.0589 7.42 8.81086 7.42 6.66286C7.42 4.49086 5.812 3.25486 4 3.25486C2.176 3.25486 0.568 4.49086 0.568 6.66286C0.568 8.81086 2.176 10.0589 4 10.0589ZM4 9.14686C2.644 9.14686 1.732 8.15086 1.732 6.66286C1.732 5.17486 2.644 4.16686 4 4.16686C5.344 4.16686 6.256 5.17486 6.256 6.66286C6.256 8.15086 5.344 9.14686 4 9.14686ZM11.2784 6.23304C11.2784 5.15917 11.4176 4.17196 11.696 3.27139C11.9773 2.36798 12.3778 1.53702 12.8977 0.778493H13.7841C13.5795 1.05974 13.3878 1.40633 13.2088 1.81827C13.0327 2.22736 12.8778 2.67764 12.7443 3.16912C12.6108 3.65775 12.5057 4.16344 12.429 4.68616C12.3551 5.20889 12.3182 5.72452 12.3182 6.23304C12.3182 6.90918 12.3835 7.59525 12.5142 8.29128C12.6449 8.9873 12.821 9.63361 13.0426 10.2302C13.2642 10.8268 13.5114 11.3126 13.7841 11.6876H12.8977C12.3778 10.9291 11.9773 10.0995 11.696 9.19895C11.4176 8.29554 11.2784 7.3069 11.2784 6.23304ZM25.0757 5.39086L16.1117 0.770857L15.7277 1.50286L23.3477 5.40286V5.42686L15.7277 9.32686L16.1117 10.0589L25.0757 5.43886V5.39086ZM36.9557 1.50286L36.5717 0.770857L27.6077 5.39086V5.43886L36.5717 10.0589L36.9557 9.32686L29.3357 5.42686V5.40286L36.9557 1.50286ZM43.3637 11.1509C44.6477 10.6709 45.4397 9.65086 45.4397 8.25886C45.4397 7.35886 45.0797 6.80686 44.4077 6.80686C43.9277 6.80686 43.5077 7.09486 43.5077 7.67086C43.5077 8.23486 43.9157 8.53486 44.4077 8.53486C44.6357 8.53486 44.8637 8.46286 45.0437 8.25886L44.3957 7.34686L44.6117 8.40286C44.6237 9.39886 44.1077 10.0709 43.0877 10.5269L43.3637 11.1509ZM44.3477 3.39886C44.8277 3.39886 45.2477 3.03886 45.2477 2.49886C45.2477 1.94686 44.8277 1.58686 44.3477 1.58686C43.8557 1.58686 43.4357 1.94686 43.4357 2.49886C43.4357 3.03886 43.8557 3.39886 44.3477 3.39886ZM53.4158 5.55122C53.4158 6.62508 53.2752 7.61372 52.994 8.51713C52.7156 9.4177 52.3164 10.2472 51.7965 11.0058H50.9102C51.1147 10.7245 51.305 10.3779 51.4812 9.96599C51.6602 9.5569 51.8164 9.10804 51.9499 8.6194C52.0835 8.12793 52.1871 7.62082 52.261 7.0981C52.3377 6.57253 52.3761 6.0569 52.3761 5.55122C52.3761 4.87508 52.3107 4.189 52.18 3.49298C52.0494 2.79696 51.8732 2.15065 51.6516 1.55406C51.43 0.95747 51.1829 0.471675 50.9102 0.0966744H51.7965C52.3164 0.855197 52.7156 1.68616 52.994 2.58957C53.2752 3.49014 53.4158 4.47736 53.4158 5.55122ZM60.1839 10.0512C59.5646 10.0512 58.9822 9.93474 58.4368 9.70179C57.8942 9.46883 57.4155 9.14639 57.0007 8.73446C56.5888 8.31969 56.2649 7.84099 56.0291 7.29838C55.7962 6.75577 55.6811 6.17338 55.6839 5.55122C55.6868 4.92906 55.8047 4.34667 56.0376 3.80406C56.2734 3.26145 56.5973 2.78417 57.0092 2.37224C57.4212 1.95747 57.8984 1.63361 58.4411 1.40065C58.9837 1.1677 59.5646 1.05122 60.1839 1.05122C60.8061 1.05122 61.3885 1.1677 61.9311 1.40065C62.4766 1.63361 62.9538 1.95747 63.3629 2.37224C63.7749 2.78417 64.0973 3.26145 64.3303 3.80406C64.5632 4.34667 64.6811 4.92906 64.6839 5.55122C64.6868 6.17338 64.5717 6.75577 64.3388 7.29838C64.1058 7.84099 63.7834 8.31969 63.3714 8.73446C62.9595 9.14639 62.4808 9.46883 61.9354 9.70179C61.3899 9.93474 60.8061 10.0512 60.1839 10.0512ZM60.1839 9.06258C60.6697 9.06258 61.1257 8.97168 61.5518 8.78986C61.978 8.60804 62.3516 8.35662 62.6726 8.0356C62.9936 7.71457 63.245 7.34241 63.4268 6.91912C63.6087 6.49298 63.6982 6.03844 63.6953 5.55548C63.6925 5.06969 63.6001 4.61372 63.4183 4.18758C63.2365 3.76145 62.9851 3.38787 62.6641 3.06685C62.343 2.74582 61.9709 2.4944 61.5476 2.31258C61.1243 2.13077 60.6697 2.03986 60.1839 2.03986C59.701 2.03986 59.2479 2.13077 58.8246 2.31258C58.4013 2.4944 58.0291 2.74724 57.7081 3.07111C57.3871 3.39213 57.1342 3.76571 56.9496 4.19185C56.7678 4.61514 56.6754 5.06969 56.6726 5.55548C56.6697 6.0356 56.7592 6.48872 56.9411 6.91486C57.1229 7.33815 57.3743 7.71031 57.6953 8.03133C58.0192 8.35236 58.3928 8.6052 58.8161 8.78986C59.2422 8.97168 59.6982 9.06258 60.1839 9.06258Z" fill="black"/>
</svg>
