<svg width="44" height="12" viewBox="0 0 44 12" fill="none" xmlns="http://www.w3.org/2000/svg">
<path d="M0.176136 6.44176C0.176136 5.37642 0.316761 4.39773 0.598011 3.50568C0.882102 2.6108 1.30398 1.78409 1.86364 1.02557H3.31676C3.10085 1.30682 2.89915 1.65199 2.71165 2.06108C2.52415 2.46733 2.3608 2.91335 2.22159 3.39915C2.08523 3.8821 1.97727 4.38352 1.89773 4.90341C1.82102 5.4233 1.78267 5.93608 1.78267 6.44176C1.78267 7.11506 1.84943 7.79687 1.98295 8.48722C2.11932 9.17756 2.30256 9.81676 2.53267 10.4048C2.76563 10.9957 3.02699 11.4787 3.31676 11.8537H1.86364C1.30398 11.0952 0.882102 10.2699 0.598011 9.37784C0.316761 8.48295 0.176136 7.50426 0.176136 6.44176ZM14.4987 5.428L5.61866 0.784L5.05466 1.864L11.9307 5.44V5.476L5.05466 9.052L5.61866 10.132L14.4987 5.476V5.428ZM26.3787 1.864L25.8147 0.784L16.9347 5.428V5.476L25.8147 10.132L26.3787 9.052L19.5027 5.476V5.44L26.3787 1.864ZM32.7147 11.56C34.2387 11.068 35.0907 9.928 35.0907 8.452C35.0907 7.324 34.6227 6.652 33.7827 6.652C33.1467 6.652 32.6067 7.048 32.6067 7.732C32.6067 8.428 33.1587 8.824 33.7587 8.824C34.0227 8.824 34.2747 8.728 34.4667 8.548L33.8067 7.48L33.8907 8.74C33.9027 9.544 33.3627 10.204 32.3187 10.6L32.7147 11.56ZM33.7227 3.82C34.3467 3.82 34.8627 3.34 34.8627 2.692C34.8627 2.032 34.3467 1.552 33.7227 1.552C33.0867 1.552 32.5707 2.032 32.5707 2.692C32.5707 3.34 33.0867 3.82 33.7227 3.82ZM43.2681 6.44176C43.2681 7.50426 43.1261 8.48295 42.842 9.37784C42.5607 10.2699 42.1403 11.0952 41.5806 11.8537H40.1275C40.3462 11.5724 40.5479 11.2287 40.7326 10.8224C40.9201 10.4162 41.082 9.97017 41.2184 9.48438C41.3576 8.99858 41.4656 8.49574 41.5423 7.97585C41.6218 7.45597 41.6616 6.9446 41.6616 6.44176C41.6616 5.76847 41.5934 5.08665 41.457 4.39631C41.3235 3.70597 41.1403 3.06534 40.9073 2.47443C40.6772 1.88352 40.4173 1.40057 40.1275 1.02557H41.5806C42.1403 1.78409 42.5607 2.6108 42.842 3.50568C43.1261 4.39773 43.2681 5.37642 43.2681 6.44176Z" fill="black"/>
</svg>
